<svg xmlns="http://www.w3.org/2000/svg" viewBox="0 0 120 120" fill="none">
  <circle cx="60" cy="60" r="50" stroke="#E5E5E5" stroke-width="2" fill="#F5F5F5"/>
  <path d="M60 30C43.4 30 30 43.4 30 60C30 76.6 43.4 90 60 90C76.6 90 90 76.6 90 60C90 43.4 76.6 30 60 30ZM60 40C65.5 40 70 44.5 70 50C70 55.5 65.5 60 60 60C54.5 60 50 55.5 50 50C50 44.5 54.5 40 60 40ZM60 82C51.2 82 43.5 77.8 38.9 71.4C38.9 63.2 54.5 58.5 60 58.5C65.5 58.5 81.1 63.2 81.1 71.4C76.5 77.8 68.8 82 60 82Z" fill="#CCCCCC"/>
  <line x1="35" y1="35" x2="85" y2="85" stroke="#CCCCCC" stroke-width="3" stroke-linecap="round"/>
</svg>