<svg width="12.375000" height="12.375000" viewBox="0 0 12.375 12.375" fill="none" xmlns="http://www.w3.org/2000/svg" xmlns:xlink="http://www.w3.org/1999/xlink">
	<desc>
			Created with Pixso.
	</desc>
	<defs/>
	<path id="Union" d="M0 6.1875C0 2.77023 2.77002 0 6.1875 0C6.4873 0 6.78174 0.0213013 7.07031 0.0625L6.625 0.0625L6.625 5.35812C6.92236 5.51532 7.125 5.82776 7.125 6.1875C7.125 6.70526 6.70508 7.125 6.1875 7.125C5.66992 7.125 5.25 6.70526 5.25 6.1875C5.25 5.82776 5.45264 5.51532 5.75 5.35812L5.75 3.6622C4.54297 3.86981 3.625 4.92142 3.625 6.1875C3.625 7.60272 4.77246 8.75 6.1875 8.75C7.60254 8.75 8.75 7.60272 8.75 6.1875C8.75 5.59137 8.54639 5.04279 8.20508 4.60745L8.91602 3.89664C9.43652 4.51599 9.75 5.31512 9.75 6.1875C9.75 8.15503 8.15479 9.75 6.1875 9.75C4.22021 9.75 2.625 8.15503 2.625 6.1875C2.625 4.3681 3.98877 2.86725 5.75 2.65161L5.75 1.01819C3.08984 1.24033 1 3.46988 1 6.1875C1 9.05249 3.32275 11.375 6.1875 11.375C9.05225 11.375 11.375 9.05249 11.375 6.1875C11.375 4.86633 10.8813 3.66052 10.0679 2.74463L10.7759 2.03647C11.7695 3.13422 12.375 4.59018 12.375 6.1875C12.375 9.60477 9.60498 12.375 6.1875 12.375C2.77002 12.375 0 9.60477 0 6.1875Z" clip-rule="evenodd" fill="#3F9EFF" fill-opacity="1.000000" fill-rule="evenodd"/>
</svg>
