<svg viewBox="0 0 1024 1024" xmlns="http://www.w3.org/2000/svg"><path d="M817.834667 359.338667h-175.488l0.256-0.938667c8.106667-33.493333 10.88-63.018667 10.88-110.805333 0-53.504-20.053333-96.085333-53.76-126.805334-21.418667-19.456-44.245333-31.061333-64.085334-37.162666l-1.706666-0.554667c-67.84-19.584-102.229333 7.424-122.026667 70.656l-0.768 2.602667c-4.736 15.317333-9.728 28.458667-15.829333 41.002666l-6.101334 11.946667a293.632 293.632 0 0 1-72.234666 88.32l-5.205334 3.968-75.776 0.042667c-93.610667 0-148.565333 51.669333-148.565333 142.208v283.52c0 71.68 30.890667 121.984 90.24 139.605333l11.52 3.029334 7.125333 1.408 3.712 0.554666 8.32 0.768 9.984 0.426667 12.501334 0.213333h43.562666l15.36 0.341334c2.474667 0.085333 4.949333 0.213333 7.381334 0.341333l387.114666 28.8c79.658667 9.386667 140.586667-23.338667 170.112-94.592l6.101334-15.232 9.984-26.368 7.210666-20.053333 11.648-33.621334 17.066667-51.626666 9.173333-28.672 9.642667-30.677334 20.608-67.114666 5.461333-18.005334 2.304-9.856c26.965333-120.32-15.658667-192.682667-122.922666-192.682666z" fill="#000000"/></svg>