<svg viewBox="0 0 1024 1024" xmlns="http://www.w3.org/2000/svg"><path d="M864 704c-45.44 0-86.08 19.52-114.56 50.56L365.76 532.16c3.84-13.44 6.24-27.52 6.24-42.24s-2.4-28.8-6.24-42.24l383.68-222.4C778.08 256.32 818.56 275.84 864 275.84c70.72 0 128-57.28 128-128s-57.28-128-128-128-128 57.28-128 128c0 14.72 2.4 28.8 6.24 42.24l-383.68 222.4C329.92 381.44 289.44 361.92 244.16 361.92c-70.72 0-128 57.28-128 128s57.28 128 128 128c45.44 0 86.08-19.52 114.56-50.56l383.68 222.4c-3.84 13.44-6.24 27.52-6.24 42.24 0 70.72 57.28 128 128 128s128-57.28 128-128-57.28-128-128-128z" fill="#000000"/></svg>