<?xml version="1.0" standalone="no"?><!DOCTYPE svg PUBLIC "-//W3C//DTD SVG 1.1//EN" "http://www.w3.org/Graphics/SVG/1.1/DTD/svg11.dtd"><svg t="1763282801918" class="icon" viewBox="0 0 1024 1024" version="1.1" xmlns="http://www.w3.org/2000/svg" p-id="8540" xmlns:xlink="http://www.w3.org/1999/xlink" width="200" height="200"><path d="M186.88 781.312S157.184 897.536 97.28 926.72c0 0 268.288-29.184 327.68-145.408H186.88z m655.36-721.92H127.488c-49.152 0-90.624 35.328-90.624 83.456v580.608c0 48.128 40.96 87.552 90.624 87.552h715.264c49.152 0 90.624-39.424 90.624-87.552V142.848c-0.512-48.128-41.472-83.456-91.136-83.456zM246.272 491.008c-32.768 0-59.392-26.112-59.392-57.856 0-32.256 26.624-57.856 59.392-57.856s59.392 26.112 59.392 57.856c0.512 32.256-26.112 57.856-59.392 57.856z m238.592 0c-32.768 0-59.392-26.112-59.392-57.856 0-32.256 26.624-57.856 59.392-57.856 32.768 0 59.392 26.112 59.392 57.856 0 32.256-26.624 57.856-59.392 57.856z m238.592 0c-32.768 0-59.392-26.112-59.392-57.856 0-32.256 26.624-57.856 59.392-57.856 32.768 0 59.392 26.112 59.392 57.856 0 32.256-26.624 57.856-59.392 57.856z" p-id="8541" fill="#2c2c2c"></path><path d="M580.096 885.76s-16.384 63.488-48.64 79.36c0 0 146.432-15.872 178.688-79.36h-130.048z m357.888-394.24H547.84c-27.136 0-49.152 19.456-49.152 45.568v316.928c0 26.112 22.528 48.128 49.152 48.128h390.144c27.136 0 49.152-21.504 49.152-48.128v-316.928c0-26.624-22.528-45.568-49.152-45.568z m-325.632 235.52c-17.92 0-32.768-14.336-32.768-31.744 0-17.408 14.336-31.744 32.768-31.744s32.768 14.336 32.768 31.744c0 17.408-14.848 31.744-32.768 31.744z m130.048 0c-17.92 0-32.768-14.336-32.768-31.744 0-17.408 14.336-31.744 32.768-31.744 17.92 0 32.768 14.336 32.768 31.744 0 17.408-14.336 31.744-32.768 31.744z m130.56 0c-17.92 0-32.768-14.336-32.768-31.744 0-17.408 14.336-31.744 32.768-31.744 17.92 0 32.768 14.336 32.768 31.744-0.512 17.408-14.848 31.744-32.768 31.744z" p-id="8542" fill="#2c2c2c"></path><path d="M742.4 728.064m-30.72 0a30.72 30.72 0 1 0 61.44 0 30.72 30.72 0 1 0-61.44 0Z" fill="#2c2c2c" p-id="8543"></path><path d="M869.376 728.064m-30.72 0a30.72 30.72 0 1 0 61.44 0 30.72 30.72 0 1 0-61.44 0Z" fill="#2c2c2c" p-id="8544"></path><path d="M615.936 728.064m-30.72 0a30.72 30.72 0 1 0 61.44 0 30.72 30.72 0 1 0-61.44 0Z" fill="#2c2c2c" p-id="8545"></path></svg>