<?xml version="1.0" standalone="no"?><!DOCTYPE svg PUBLIC "-//W3C//DTD SVG 1.1//EN" "http://www.w3.org/Graphics/SVG/1.1/DTD/svg11.dtd"><svg t="1763282343531" class="icon" viewBox="0 0 1024 1024" version="1.1" xmlns="http://www.w3.org/2000/svg" p-id="5324" xmlns:xlink="http://www.w3.org/1999/xlink" width="200" height="200"><path d="M928 213.333333h-74.666667V96a53.393333 53.393333 0 0 0-53.333333-53.333333H96a53.393333 53.393333 0 0 0-53.333333 53.333333v832a53.393333 53.393333 0 0 0 53.333333 53.333333h800a85.426667 85.426667 0 0 0 85.333333-85.333333V266.666667a53.393333 53.393333 0 0 0-53.333333-53.333334zM213.333333 234.666667a21.333333 21.333333 0 0 1 38-13.333334l132.666667 165.853334V234.666667a21.333333 21.333333 0 0 1 42.666667 0v213.333333a21.333333 21.333333 0 0 1-38 13.333333L256 295.48V448a21.333333 21.333333 0 0 1-42.666667 0z m448 576H234.666667a21.333333 21.333333 0 0 1 0-42.666667h426.666666a21.333333 21.333333 0 0 1 0 42.666667z m0-170.666667H234.666667a21.333333 21.333333 0 0 1 0-42.666667h426.666666a21.333333 21.333333 0 0 1 0 42.666667z m0-213.333333H533.333333a21.333333 21.333333 0 0 1 0-42.666667h128a21.333333 21.333333 0 0 1 0 42.666667z m0-170.666667H533.333333a21.333333 21.333333 0 0 1 0-42.666667h128a21.333333 21.333333 0 0 1 0 42.666667z m277.333334 640a42.666667 42.666667 0 0 1-85.333334 0V256h74.666667a10.666667 10.666667 0 0 1 10.666667 10.666667z" fill="#2c2c2c" p-id="5325"></path></svg>